<svg version="1.1" id="Layer_1" xmlns="http://www.w3.org/2000/svg" xmlns:xlink="http://www.w3.org/1999/xlink" x="0px" y="0px"
	 width="100%" viewBox="0 0 1024 544" enable-background="new 0 0 1024 544" xml:space="preserve">
<path fill="#000000" opacity="1.000000" stroke="none" 
	d="
M278.413757,338.301941 
	C268.828461,351.630798 255.169189,353.198181 241.059494,350.718262 
	C212.600845,345.716370 193.753540,320.960785 194.738754,291.271454 
	C195.641525,264.067017 217.116745,240.565903 244.463318,236.856094 
	C276.003113,232.577454 305.742859,256.370575 308.370941,288.107178 
	C309.995941,307.730194 308.708038,327.399292 309.046783,347.044006 
	C309.101562,350.219910 307.693848,351.495392 304.508026,351.431641 
	C297.846161,351.298279 291.175385,351.235443 284.517242,351.438324 
	C280.729370,351.553772 279.494568,349.954010 279.672821,346.393005 
	C279.813293,343.586090 279.552673,340.758881 279.446747,337.941559 
	C279.444794,337.889923 279.142212,337.795746 278.994751,337.818359 
	C278.844482,337.841431 278.712616,337.984467 278.413757,338.301941 
M278.669861,302.045135 
	C281.892578,289.637726 277.426788,277.517212 267.074951,270.575775 
	C257.317413,264.032837 244.330627,264.514313 234.889038,271.769043 
	C225.503174,278.980927 221.596451,291.875977 225.389618,303.123993 
	C229.218277,314.477234 239.938416,322.379822 251.780106,322.578339 
	C263.284210,322.771210 273.780121,315.005493 278.669861,302.045135 
z"/>
<path fill="#000000" opacity="1.000000" stroke="none" 
	d="
M309.150269,262.498077 
	C310.523743,265.814819 313.145996,265.001434 315.345551,265.011108 
	C329.844360,265.074921 344.346466,265.216919 358.841064,264.964844 
	C363.895721,264.876984 365.675415,266.600555 365.367462,271.625244 
	C365.001129,277.602844 365.176361,283.621063 365.296570,289.618103 
	C365.362335,292.899689 364.326782,294.487152 360.732574,294.453827 
	C346.567993,294.322327 332.401276,294.338745 318.236084,294.422424 
	C315.016815,294.441467 313.946167,293.070923 313.693665,289.978943 
	C311.945709,268.573547 301.728271,252.214188 283.653534,240.808075 
	C280.739746,238.969299 279.522766,236.983963 279.630188,233.575989 
	C279.845398,226.749817 279.787598,219.910538 279.660736,213.080048 
	C279.601440,209.887924 280.822296,208.640610 284.050323,208.647293 
	C314.381561,208.710007 344.713074,208.709076 375.044312,208.636734 
	C378.318542,208.628922 379.433838,209.941223 379.363831,213.101654 
	C379.223602,219.431427 379.042358,225.783447 379.419525,232.093933 
	C379.705231,236.874771 377.726471,238.100845 373.340912,238.063843 
	C354.510040,237.904999 335.677216,237.975708 316.845123,237.956131 
	C308.977905,237.947968 308.971283,237.940475 308.990143,245.563950 
	C309.003754,251.062271 309.037964,256.560577 309.150269,262.498077 
z"/>
<path fill="#000000" opacity="1.000000" stroke="none" 
	d="
M480.612061,264.510681 
	C492.101227,256.822235 501.700348,257.235901 512.202515,265.867218 
	C513.869873,263.910889 513.523621,261.545685 513.560669,259.356842 
	C513.653809,253.862610 513.695496,248.364716 513.597229,242.871170 
	C513.545654,239.982925 514.535034,238.411682 517.615295,238.677307 
	C517.780396,238.691559 517.948181,238.670715 518.114624,238.673218 
	C534.090149,238.914505 531.143005,236.453247 531.262390,251.161209 
	C531.443481,273.475281 531.192627,295.792969 531.396606,318.106659 
	C531.440125,322.869659 530.007324,324.959991 525.163635,324.318420 
	C523.853821,324.144897 522.485901,324.146881 521.173218,324.305359 
	C516.109436,324.916595 512.547119,323.832855 513.624451,317.207642 
	C497.905060,333.297211 474.710327,323.809662 470.697937,303.479248 
	C467.863647,289.118286 468.847504,275.593750 480.612061,264.510681 
M488.206329,287.912506 
	C487.941559,293.407837 487.758698,298.885803 490.550049,303.940216 
	C495.124023,312.222412 505.611572,312.777405 510.274323,304.620911 
	C514.865601,296.589447 514.635437,288.054321 510.477997,279.839294 
	C508.450623,275.833282 504.833862,273.974609 500.219055,274.045197 
	C495.523041,274.117096 492.433075,276.489227 490.343414,280.446686 
	C489.255219,282.507507 488.326508,284.641998 488.206329,287.912506 
z"/>
<path fill="#000000" opacity="1.000000" stroke="none" 
	d="
M405.913086,314.710236 
	C401.017120,300.106720 406.741791,289.923889 421.417969,286.886658 
	C426.455414,285.844208 431.625793,285.460175 436.699493,284.570526 
	C439.313568,284.112122 442.362640,283.456421 442.475830,280.092072 
	C442.596863,276.493378 440.300781,274.051392 436.870789,273.422729 
	C431.799652,272.493225 426.734711,272.470551 423.736908,277.861694 
	C422.545044,280.005096 420.793579,280.271973 418.663391,280.040955 
	C416.019318,279.754211 413.367126,279.400024 410.714722,279.365936 
	C406.817535,279.315765 406.172577,277.474884 407.419128,274.211182 
	C409.215302,269.508484 412.229187,265.778381 416.646606,263.440582 
	C427.333771,257.784668 438.324860,257.448853 449.291412,262.509674 
	C456.429016,265.803528 460.221436,271.679932 460.318939,279.546600 
	C460.483856,292.856964 460.295013,306.171661 460.451569,319.482208 
	C460.495941,323.252991 458.956085,324.586151 455.395111,324.303162 
	C453.574677,324.158478 451.723175,324.156555 449.903259,324.304993 
	C445.810089,324.638824 442.836700,323.786407 443.777161,317.637543 
	C436.632355,325.260010 428.472351,326.405212 419.775848,324.837067 
	C413.793213,323.758301 408.877014,320.791473 405.913086,314.710236 
M431.074188,297.466431 
	C429.794373,297.830505 428.492035,298.130615 427.238953,298.570740 
	C423.524597,299.875366 421.280792,302.346466 421.924438,306.461487 
	C422.575989,310.627594 425.804291,312.156433 429.487396,312.485199 
	C438.766205,313.313385 444.903900,304.929260 441.621338,295.776489 
	C438.406403,296.299774 435.146301,296.830414 431.074188,297.466431 
z"/>
<path fill="#000000" opacity="1.000000" stroke="none" 
	d="
M732.746704,339.272644 
	C748.115601,340.514404 754.262756,332.954498 752.273499,315.247131 
	C748.032776,319.809143 743.149536,322.752350 737.150940,323.256439 
	C723.707947,324.386108 713.406128,317.460815 709.588684,304.450287 
	C705.942200,292.022400 706.756958,280.002380 714.657471,269.263245 
	C723.125427,257.752838 738.822083,256.036285 749.935303,265.108734 
	C750.557983,265.617065 751.194824,266.108063 752.139893,266.856445 
	C753.483643,264.330139 751.473938,260.213928 756.234497,259.852661 
	C762.064636,259.410217 763.354004,260.243439 763.359314,266.088898 
	C763.376221,284.735901 763.410095,303.383026 763.355347,322.029877 
	C763.299194,341.149994 751.007446,351.624390 731.858215,349.003265 
	C724.224609,347.958374 717.202881,345.702637 712.440125,339.108673 
	C711.125183,337.288177 709.065430,334.928253 712.471558,333.402374 
	C715.122620,332.214844 717.673401,327.343170 721.171265,332.357819 
	C723.896667,336.264893 727.684998,338.444397 732.746704,339.272644 
M719.154114,293.339050 
	C719.228149,294.668579 719.213196,296.010132 719.390503,297.325745 
	C720.641418,306.606201 726.552124,312.684601 734.635376,313.057617 
	C743.836975,313.482269 749.338928,308.973389 751.827820,299.147034 
	C753.526001,292.442474 752.884094,285.898438 750.415405,279.575867 
	C747.941345,273.239563 743.005615,269.651764 736.259338,269.481750 
	C729.520874,269.311890 724.552063,272.688660 721.537170,278.795990 
	C719.409363,283.106354 719.021057,287.717529 719.154114,293.339050 
z"/>
<path fill="#000000" opacity="1.000000" stroke="none" 
	d="
M797.342957,259.893860 
	C819.563232,256.807617 830.358887,270.405029 831.356445,289.579498 
	C831.608704,294.429565 829.902100,296.339783 825.140564,295.875366 
	C813.999939,294.788727 802.857544,296.279449 791.707886,295.940643 
	C786.256042,295.775055 785.554077,296.953583 787.116516,302.179657 
	C789.257080,309.339844 793.899292,314.122528 801.254395,315.430267 
	C808.323486,316.687103 814.341064,314.548401 818.613525,308.270111 
	C822.225891,302.961823 825.833557,307.949493 829.497559,308.121185 
	C828.279175,317.478302 819.097412,324.686035 808.130981,325.313141 
	C785.959106,326.580933 771.811829,310.569153 774.999939,287.870972 
	C776.906616,274.296600 782.777588,263.888855 797.342957,259.893860 
M796.737915,286.110870 
	C802.871704,286.254272 809.010925,286.284302 815.137207,286.581940 
	C819.057190,286.772400 820.243225,285.368530 819.177734,281.549408 
	C816.907166,273.411560 809.922180,268.488983 801.587097,269.391296 
	C793.376160,270.280121 787.137695,277.179413 787.074768,285.714355 
	C789.899597,286.854980 792.908752,285.832458 796.737915,286.110870 
z"/>
<path fill="#000000" opacity="1.000000" stroke="none" 
	d="
M557.118164,318.798706 
	C557.560059,325.780518 552.783936,324.061707 549.240173,324.263428 
	C545.134521,324.497131 545.475769,321.778229 545.468079,318.927277 
	C545.409546,297.291199 545.237000,275.655457 545.112976,254.019562 
	C545.085449,249.211548 545.109009,244.403259 545.109009,240.450684 
	C547.058228,238.277100 548.649902,238.661972 550.088623,238.657715 
	C563.906189,238.616791 577.725037,238.714111 591.541016,238.554642 
	C595.296631,238.511307 597.027039,239.575806 596.960083,243.613419 
	C596.891968,247.719009 594.910828,248.512115 591.300171,248.436478 
	C582.314270,248.248260 573.321655,248.349014 564.331970,248.387726 
	C557.543152,248.416977 557.156250,248.814529 557.140381,255.353104 
	C557.127441,260.680328 557.272583,266.010864 557.125793,271.333801 
	C557.030884,274.775543 558.445618,276.094818 561.847595,276.050629 
	C570.336365,275.940369 578.828735,276.106720 587.317627,276.000183 
	C591.098022,275.952789 593.175171,276.934418 593.165283,281.325653 
	C593.155334,285.750549 591.095703,286.562653 587.288940,286.465393 
	C579.635986,286.269836 571.974426,286.392365 564.316467,286.418335 
	C557.396667,286.441803 557.145752,286.705292 557.128845,293.850739 
	C557.109558,302.008209 557.122009,310.165710 557.118164,318.798706 
z"/>
<path fill="#000000" opacity="1.000000" stroke="none" 
	d="
M631.897949,259.355530 
	C653.376343,260.166290 662.685303,279.158386 659.901306,298.753632 
	C658.197571,310.746063 652.664978,320.185944 640.453369,324.175262 
	C621.694397,330.303619 604.390442,317.544464 602.766479,296.517029 
	C602.353699,291.171875 602.810547,285.881500 604.228699,280.709106 
	C607.839172,267.541199 616.828979,260.518860 631.897949,259.355530 
M622.737000,312.875885 
	C631.367737,317.625641 640.022705,315.833801 645.094971,308.247101 
	C650.867126,299.613586 650.782227,285.047943 644.909729,276.496490 
	C638.550720,267.236481 624.997070,266.971069 618.421265,275.805389 
	C611.623474,284.937897 612.360474,305.944885 622.737000,312.875885 
z"/>
<path fill="#000000" opacity="1.000000" stroke="none" 
	d="
M682.456421,286.564514 
	C682.410583,297.824432 682.245972,308.638458 682.442200,319.445953 
	C682.518372,323.645874 680.585266,324.374237 676.980774,324.374695 
	C673.276550,324.375183 671.571655,323.364288 671.606628,319.293610 
	C671.759521,301.497437 671.662109,283.699158 671.669250,265.901642 
	C671.670410,263.096649 671.135193,259.958160 675.537964,259.901642 
	C679.121033,259.855621 682.888367,259.366852 682.549500,264.843353 
	C682.533752,265.097656 682.889282,265.374939 683.107605,265.693695 
	C684.968262,266.227081 685.686951,264.544708 686.716736,263.643646 
	C689.716064,261.019318 693.206787,259.663208 697.106506,259.246338 
	C703.497070,258.563171 706.000916,261.876831 703.884216,267.984039 
	C703.173035,270.036072 701.761230,270.136780 699.995117,270.214752 
	C687.958435,270.745941 684.637085,273.791840 682.456421,286.564514 
z"/>
</svg>